<svg width="165" height="60" viewBox="0 0 165 60" fill="none" xmlns="http://www.w3.org/2000/svg">
<rect x="1" y="1" width="163" height="58" rx="5" fill="white"/>
<path d="M15.4354 12.443L15.4354 12.4429L15.4224 12.444C14.4012 12.5335 13.5824 12.9357 13.041 13.6371C12.5207 14.3111 12.3543 15.1357 12.3543 15.8993V37.8283C12.3543 39.1092 12.8292 40.1582 13.7333 41.377L13.7332 41.377L13.7411 41.3873L18.4007 47.5021L18.4006 47.5021L18.4065 47.5097C18.8628 48.0967 19.369 48.5409 20.0499 48.7922C20.6968 49.031 21.4018 49.0565 22.1667 49.0196L22.1667 49.0197L22.1794 49.0189L45.1985 47.613L45.2092 47.6122C46.3119 47.533 47.2456 47.2199 47.8737 46.4987C48.4915 45.7892 48.6414 44.8786 48.6414 44.0144V19.3436C48.6414 18.742 48.5033 18.23 48.0973 17.7545C47.822 17.4321 47.4174 17.1344 47.0091 16.8341C46.9542 16.7938 46.8993 16.7533 46.8446 16.7128L46.8367 16.707L46.8287 16.7013L40.5076 12.2076C39.7174 11.6274 39.0445 11.2116 38.1893 11.0155C37.3679 10.8273 36.4603 10.8623 35.2513 10.967L15.4354 12.443Z" fill="white" stroke="white" stroke-width="2"/>
<path fill-rule="evenodd" clip-rule="evenodd" d="M35.3316 11.9638L15.5097 13.4402C13.9113 13.5802 13.3543 14.6349 13.3543 15.8993V37.8283C13.3543 38.8136 13.7015 39.6556 14.5365 40.7812L19.1961 46.896C19.9614 47.8806 20.657 48.0913 22.1185 48.0208L45.1375 46.6148C47.0845 46.4749 47.6414 45.5605 47.6414 44.0144V19.3436C47.6414 18.5444 47.3287 18.3135 46.407 17.6329C46.3563 17.5955 46.3037 17.5567 46.2493 17.5163L39.9219 13.0182C38.392 11.8941 37.7657 11.7526 35.3316 11.9638ZM22.6404 18.939C20.761 19.0673 20.334 19.0965 19.2667 18.2195L16.5527 16.0407C16.2759 15.759 16.4147 15.4075 17.1097 15.3378L36.1663 13.932C37.7654 13.7911 38.5998 14.3543 39.2261 14.8461L42.4946 17.236C42.6337 17.306 42.9809 17.7272 42.5635 17.7272L22.883 18.9225L22.6404 18.939ZM20.4483 43.8031V22.8586C20.4483 21.945 20.7265 21.523 21.5606 21.4521L44.1629 20.1172C44.9295 20.0469 45.2767 20.5392 45.2767 21.4521V42.2561C45.2767 43.1705 45.1373 43.9447 43.8849 44.0144L22.2562 45.2802C21.0045 45.3499 20.4483 44.9288 20.4483 43.8031ZM41.8002 23.9821C41.9389 24.6153 41.8002 25.2479 41.1731 25.3191L40.1309 25.5291V40.9917C39.2261 41.4836 38.3917 41.7648 37.6965 41.7648C36.5833 41.7648 36.3045 41.4131 35.4707 40.3594L28.6541 29.5355V40.008L30.8111 40.5003C30.8111 40.5003 30.8111 41.7648 29.0708 41.7648L24.2733 42.0463C24.1339 41.7648 24.2733 41.0626 24.7599 40.9218L26.0118 40.5709V26.7244L24.2735 26.5835C24.1342 25.9503 24.4813 25.0374 25.4557 24.9665L30.6024 24.6156L37.6965 35.5804V25.8806L35.8878 25.6706C35.7489 24.8965 36.3045 24.3344 37.0001 24.2647L41.8002 23.9821Z" fill="black"/>
<path d="M71.3878 15.4545V30H69.044L62.1903 20.0923H62.0696V30H59.4347V15.4545H61.7926L68.6392 25.3693H68.767V15.4545H71.3878ZM78.5038 30.2131C77.4384 30.2131 76.5151 29.9787 75.7339 29.5099C74.9526 29.0412 74.3466 28.3854 73.9157 27.5426C73.4896 26.6998 73.2765 25.715 73.2765 24.5881C73.2765 23.4612 73.4896 22.474 73.9157 21.6264C74.3466 20.7789 74.9526 20.1207 75.7339 19.652C76.5151 19.1832 77.4384 18.9489 78.5038 18.9489C79.5691 18.9489 80.4924 19.1832 81.2737 19.652C82.0549 20.1207 82.6586 20.7789 83.0847 21.6264C83.5156 22.474 83.731 23.4612 83.731 24.5881C83.731 25.715 83.5156 26.6998 83.0847 27.5426C82.6586 28.3854 82.0549 29.0412 81.2737 29.5099C80.4924 29.9787 79.5691 30.2131 78.5038 30.2131ZM78.518 28.1534C79.0956 28.1534 79.5786 27.9948 79.9668 27.6776C80.3551 27.3556 80.6439 26.9247 80.8333 26.3849C81.0274 25.8452 81.1245 25.2438 81.1245 24.581C81.1245 23.9134 81.0274 23.3097 80.8333 22.7699C80.6439 22.2254 80.3551 21.7921 79.9668 21.4702C79.5786 21.1482 79.0956 20.9872 78.518 20.9872C77.9261 20.9872 77.4337 21.1482 77.0407 21.4702C76.6524 21.7921 76.3612 22.2254 76.1671 22.7699C75.9777 23.3097 75.883 23.9134 75.883 24.581C75.883 25.2438 75.9777 25.8452 76.1671 26.3849C76.3612 26.9247 76.6524 27.3556 77.0407 27.6776C77.4337 27.9948 77.9261 28.1534 78.518 28.1534ZM90.9607 19.0909V21.0795H84.6893V19.0909H90.9607ZM86.2376 16.4773H88.8087V26.7188C88.8087 27.0644 88.8607 27.3295 88.9649 27.5142C89.0738 27.6941 89.2159 27.8172 89.3911 27.8835C89.5662 27.9498 89.7604 27.983 89.9734 27.983C90.1344 27.983 90.2812 27.9711 90.4138 27.9474C90.5511 27.9238 90.6553 27.9025 90.7263 27.8835L91.1595 29.8935C91.0222 29.9408 90.8257 29.9929 90.57 30.0497C90.3191 30.1065 90.0113 30.1397 89.6467 30.1491C89.0028 30.1681 88.4228 30.071 87.9067 29.858C87.3906 29.6402 86.981 29.304 86.678 28.8494C86.3797 28.3949 86.2329 27.8267 86.2376 27.1449V16.4773ZM92.7109 30V19.0909H95.2819V30H92.7109ZM94.0035 17.5426C93.5963 17.5426 93.2459 17.4077 92.9523 17.1378C92.6588 16.8632 92.512 16.5341 92.512 16.1506C92.512 15.7623 92.6588 15.4332 92.9523 15.1634C93.2459 14.8887 93.5963 14.7514 94.0035 14.7514C94.4154 14.7514 94.7658 14.8887 95.0546 15.1634C95.3482 15.4332 95.495 15.7623 95.495 16.1506C95.495 16.5341 95.3482 16.8632 95.0546 17.1378C94.7658 17.4077 94.4154 17.5426 94.0035 17.5426ZM102.284 30.2131C101.219 30.2131 100.296 29.9787 99.5143 29.5099C98.7331 29.0412 98.127 28.3854 97.6962 27.5426C97.27 26.6998 97.057 25.715 97.057 24.5881C97.057 23.4612 97.27 22.474 97.6962 21.6264C98.127 20.7789 98.7331 20.1207 99.5143 19.652C100.296 19.1832 101.219 18.9489 102.284 18.9489C103.35 18.9489 104.273 19.1832 105.054 19.652C105.835 20.1207 106.439 20.7789 106.865 21.6264C107.296 22.474 107.512 23.4612 107.512 24.5881C107.512 25.715 107.296 26.6998 106.865 27.5426C106.439 28.3854 105.835 29.0412 105.054 29.5099C104.273 29.9787 103.35 30.2131 102.284 30.2131ZM102.298 28.1534C102.876 28.1534 103.359 27.9948 103.747 27.6776C104.136 27.3556 104.424 26.9247 104.614 26.3849C104.808 25.8452 104.905 25.2438 104.905 24.581C104.905 23.9134 104.808 23.3097 104.614 22.7699C104.424 22.2254 104.136 21.7921 103.747 21.4702C103.359 21.1482 102.876 20.9872 102.298 20.9872C101.707 20.9872 101.214 21.1482 100.821 21.4702C100.433 21.7921 100.142 22.2254 99.9476 22.7699C99.7582 23.3097 99.6635 23.9134 99.6635 24.581C99.6635 25.2438 99.7582 25.8452 99.9476 26.3849C100.142 26.9247 100.433 27.3556 100.821 27.6776C101.214 27.9948 101.707 28.1534 102.298 28.1534ZM111.865 23.608V30H109.294V19.0909H111.751V20.9446H111.879C112.13 20.3338 112.53 19.8485 113.079 19.4886C113.633 19.1288 114.317 18.9489 115.132 18.9489C115.885 18.9489 116.54 19.1098 117.099 19.4318C117.663 19.7538 118.098 20.2202 118.406 20.831C118.718 21.4418 118.872 22.1828 118.868 23.054V30H116.297V23.4517C116.297 22.7225 116.107 22.152 115.728 21.7401C115.354 21.3281 114.836 21.1222 114.173 21.1222C113.723 21.1222 113.323 21.2216 112.973 21.4205C112.627 21.6146 112.355 21.8963 112.156 22.2656C111.962 22.6349 111.865 23.0824 111.865 23.608Z" fill="black"/>
<path d="M67.2514 40.2727C67.2514 41.2822 67.0668 42.1501 66.6974 42.8764C66.3281 43.5997 65.8219 44.1567 65.1786 44.5476C64.5385 44.9354 63.8106 45.1293 62.995 45.1293C62.1764 45.1293 61.4454 44.9354 60.8022 44.5476C60.1621 44.1567 59.6573 43.5981 59.288 42.8718C58.9187 42.1455 58.734 41.2791 58.734 40.2727C58.734 39.2633 58.9187 38.3969 59.288 37.6737C59.6573 36.9473 60.1621 36.3903 60.8022 36.0025C61.4454 35.6116 62.1764 35.4162 62.995 35.4162C63.8106 35.4162 64.5385 35.6116 65.1786 36.0025C65.8219 36.3903 66.3281 36.9473 66.6974 37.6737C67.0668 38.3969 67.2514 39.2633 67.2514 40.2727ZM65.8388 40.2727C65.8388 39.5033 65.7141 38.8555 65.4648 38.3292C65.2186 37.7998 64.8801 37.3997 64.4492 37.1289C64.0214 36.855 63.5367 36.718 62.995 36.718C62.4503 36.718 61.964 36.855 61.5362 37.1289C61.1084 37.3997 60.7699 37.7998 60.5206 38.3292C60.2744 38.8555 60.1513 39.5033 60.1513 40.2727C60.1513 41.0421 60.2744 41.6915 60.5206 42.2209C60.7699 42.7472 61.1084 43.1473 61.5362 43.4212C61.964 43.692 62.4503 43.8274 62.995 43.8274C63.5367 43.8274 64.0214 43.692 64.4492 43.4212C64.8801 43.1473 65.2186 42.7472 65.4648 42.2209C65.7141 41.6915 65.8388 41.0421 65.8388 40.2727ZM72.2938 37.9091V39.017H68.2867V37.9091H72.2938ZM69.3854 45V37.0874C69.3854 36.6442 69.4823 36.2764 69.6762 35.984C69.8701 35.6886 70.1271 35.4685 70.4472 35.3239C70.7673 35.1761 71.115 35.1023 71.4905 35.1023C71.7675 35.1023 72.0045 35.1254 72.2014 35.1715C72.3984 35.2146 72.5446 35.2546 72.64 35.2915L72.3169 36.4087C72.2522 36.3903 72.1691 36.3687 72.0676 36.3441C71.966 36.3164 71.8429 36.3026 71.6982 36.3026C71.3628 36.3026 71.1227 36.3857 70.9781 36.5518C70.8365 36.718 70.7657 36.9581 70.7657 37.272V45H69.3854ZM77.0926 37.9091V39.017H73.0855V37.9091H77.0926ZM74.1842 45V37.0874C74.1842 36.6442 74.2812 36.2764 74.4751 35.984C74.6689 35.6886 74.9259 35.4685 75.246 35.3239C75.5661 35.1761 75.9139 35.1023 76.2893 35.1023C76.5663 35.1023 76.8033 35.1254 77.0003 35.1715C77.1972 35.2146 77.3434 35.2546 77.4388 35.2915L77.1157 36.4087C77.051 36.3903 76.968 36.3687 76.8664 36.3441C76.7648 36.3164 76.6417 36.3026 76.4971 36.3026C76.1616 36.3026 75.9215 36.3857 75.7769 36.5518C75.6353 36.718 75.5645 36.9581 75.5645 37.272V45H74.1842ZM78.5168 45V37.9091H79.8971V45H78.5168ZM79.2139 36.815C78.9738 36.815 78.7676 36.735 78.5953 36.5749C78.426 36.4118 78.3414 36.2179 78.3414 35.9933C78.3414 35.7655 78.426 35.5716 78.5953 35.4116C78.7676 35.2485 78.9738 35.1669 79.2139 35.1669C79.4539 35.1669 79.6586 35.2485 79.8279 35.4116C80.0002 35.5716 80.0864 35.7655 80.0864 35.9933C80.0864 36.2179 80.0002 36.4118 79.8279 36.5749C79.6586 36.735 79.4539 36.815 79.2139 36.815ZM84.7409 45.1431C84.0546 45.1431 83.4637 44.9877 82.9682 44.6768C82.4758 44.3629 82.0972 43.9305 81.8326 43.3796C81.5679 42.8287 81.4355 42.1978 81.4355 41.4869C81.4355 40.7667 81.571 40.1312 81.8418 39.5803C82.1126 39.0263 82.4943 38.5939 82.9867 38.283C83.4791 37.9722 84.0592 37.8168 84.7271 37.8168C85.2657 37.8168 85.7458 37.9168 86.1674 38.1168C86.5891 38.3138 86.9292 38.5908 87.1877 38.9478C87.4493 39.3048 87.6047 39.7218 87.6539 40.1989H86.3105C86.2367 39.8665 86.0674 39.5803 85.8027 39.3402C85.5411 39.1001 85.1903 38.9801 84.7502 38.9801C84.3655 38.9801 84.0285 39.0817 83.7392 39.2848C83.4529 39.4848 83.2298 39.7711 83.0698 40.1435C82.9097 40.5128 82.8297 40.9498 82.8297 41.4545C82.8297 41.9716 82.9082 42.4179 83.0652 42.7933C83.2221 43.1688 83.4437 43.4596 83.7299 43.6658C84.0192 43.872 84.3593 43.9751 84.7502 43.9751C85.0118 43.9751 85.2488 43.9274 85.4611 43.832C85.6766 43.7335 85.8566 43.5935 86.0012 43.4119C86.149 43.2304 86.2521 43.0118 86.3105 42.7564H87.6539C87.6047 43.215 87.4554 43.6243 87.2061 43.9844C86.9569 44.3445 86.6229 44.6276 86.2044 44.8338C85.7889 45.04 85.3011 45.1431 84.7409 45.1431ZM89.1301 45V37.9091H90.5104V45H89.1301ZM89.8271 36.815C89.5871 36.815 89.3809 36.735 89.2085 36.5749C89.0393 36.4118 88.9546 36.2179 88.9546 35.9933C88.9546 35.7655 89.0393 35.5716 89.2085 35.4116C89.3809 35.2485 89.5871 35.1669 89.8271 35.1669C90.0672 35.1669 90.2719 35.2485 90.4411 35.4116C90.6135 35.5716 90.6997 35.7655 90.6997 35.9933C90.6997 36.2179 90.6135 36.4118 90.4411 36.5749C90.2719 36.735 90.0672 36.815 89.8271 36.815ZM94.4309 45.157C93.9816 45.157 93.5753 45.0739 93.2122 44.9077C92.849 44.7384 92.5613 44.4937 92.3489 44.1737C92.1396 43.8536 92.035 43.4612 92.035 42.9964C92.035 42.5964 92.1119 42.267 92.2658 42.0085C92.4197 41.75 92.6274 41.5453 92.889 41.3945C93.1506 41.2437 93.443 41.1299 93.7662 41.0529C94.0893 40.976 94.4186 40.9175 94.7541 40.8775C95.1788 40.8282 95.5235 40.7882 95.7882 40.7575C96.0529 40.7236 96.2452 40.6697 96.3652 40.5959C96.4853 40.522 96.5453 40.402 96.5453 40.2358V40.2035C96.5453 39.8003 96.4314 39.4879 96.2037 39.2663C95.979 39.0447 95.6435 38.9339 95.1973 38.9339C94.7325 38.9339 94.3663 39.037 94.0985 39.2433C93.8339 39.4464 93.6507 39.6726 93.5492 39.9219L92.252 39.6264C92.4058 39.1955 92.6305 38.8478 92.926 38.5831C93.2245 38.3153 93.5676 38.1214 93.9554 38.0014C94.3432 37.8783 94.751 37.8168 95.1788 37.8168C95.4619 37.8168 95.762 37.8506 96.079 37.9183C96.3991 37.983 96.6976 38.103 96.9746 38.2784C97.2547 38.4538 97.484 38.7047 97.6625 39.0309C97.841 39.354 97.9302 39.7741 97.9302 40.2912V45H96.5822V44.0305H96.5268C96.4376 44.209 96.3037 44.3845 96.1252 44.5568C95.9467 44.7292 95.7174 44.8723 95.4373 44.9862C95.1573 45.1 94.8218 45.157 94.4309 45.157ZM94.731 44.049C95.1126 44.049 95.4389 43.9736 95.7097 43.8228C95.9836 43.672 96.1913 43.475 96.3329 43.2319C96.4776 42.9857 96.5499 42.7225 96.5499 42.4425V41.5284C96.5007 41.5777 96.4052 41.6238 96.2637 41.6669C96.1252 41.7069 95.9667 41.7423 95.7882 41.7731C95.6097 41.8008 95.4358 41.8269 95.2665 41.8516C95.0972 41.8731 94.9557 41.8916 94.8418 41.907C94.574 41.9408 94.3294 41.9978 94.1078 42.0778C93.8893 42.1578 93.7138 42.2732 93.5815 42.424C93.4522 42.5717 93.3876 42.7687 93.3876 43.0149C93.3876 43.3565 93.5138 43.6151 93.7662 43.7905C94.0185 43.9628 94.3401 44.049 94.731 44.049ZM101.149 35.5455V45H99.7687V35.5455H101.149ZM107.356 45H105.842L109.244 35.5455H110.892L114.294 45H112.78L110.107 37.2628H110.033L107.356 45ZM107.61 41.2976H112.522V42.4979H107.61V41.2976ZM118.886 37.9091V39.017H114.878V37.9091H118.886ZM115.977 45V37.0874C115.977 36.6442 116.074 36.2764 116.268 35.984C116.462 35.6886 116.719 35.4685 117.039 35.3239C117.359 35.1761 117.707 35.1023 118.082 35.1023C118.359 35.1023 118.596 35.1254 118.793 35.1715C118.99 35.2146 119.136 35.2546 119.232 35.2915L118.909 36.4087C118.844 36.3903 118.761 36.3687 118.659 36.3441C118.558 36.3164 118.435 36.3026 118.29 36.3026C117.955 36.3026 117.715 36.3857 117.57 36.5518C117.428 36.718 117.358 36.9581 117.358 37.272V45H115.977ZM123.684 37.9091V39.017H119.677V37.9091H123.684ZM120.776 45V37.0874C120.776 36.6442 120.873 36.2764 121.067 35.984C121.261 35.6886 121.518 35.4685 121.838 35.3239C122.158 35.1761 122.506 35.1023 122.881 35.1023C123.158 35.1023 123.395 35.1254 123.592 35.1715C123.789 35.2146 123.935 35.2546 124.031 35.2915L123.707 36.4087C123.643 36.3903 123.56 36.3687 123.458 36.3441C123.357 36.3164 123.234 36.3026 123.089 36.3026C122.753 36.3026 122.513 36.3857 122.369 36.5518C122.227 36.718 122.156 36.9581 122.156 37.272V45H120.776ZM125.109 45V37.9091H126.489V45H125.109ZM125.806 36.815C125.566 36.815 125.359 36.735 125.187 36.5749C125.018 36.4118 124.933 36.2179 124.933 35.9933C124.933 35.7655 125.018 35.5716 125.187 35.4116C125.359 35.2485 125.566 35.1669 125.806 35.1669C126.046 35.1669 126.25 35.2485 126.42 35.4116C126.592 35.5716 126.678 35.7655 126.678 35.9933C126.678 36.2179 126.592 36.4118 126.42 36.5749C126.25 36.735 126.046 36.815 125.806 36.815ZM129.726 35.5455V45H128.346V35.5455H129.726ZM131.583 45V37.9091H132.964V45H131.583ZM132.28 36.815C132.04 36.815 131.834 36.735 131.662 36.5749C131.492 36.4118 131.408 36.2179 131.408 35.9933C131.408 35.7655 131.492 35.5716 131.662 35.4116C131.834 35.2485 132.04 35.1669 132.28 35.1669C132.52 35.1669 132.725 35.2485 132.894 35.4116C133.067 35.5716 133.153 35.7655 133.153 35.9933C133.153 36.2179 133.067 36.4118 132.894 36.5749C132.725 36.735 132.52 36.815 132.28 36.815ZM136.884 45.157C136.435 45.157 136.028 45.0739 135.665 44.9077C135.302 44.7384 135.014 44.4937 134.802 44.1737C134.593 43.8536 134.488 43.4612 134.488 42.9964C134.488 42.5964 134.565 42.267 134.719 42.0085C134.873 41.75 135.081 41.5453 135.342 41.3945C135.604 41.2437 135.896 41.1299 136.219 41.0529C136.542 40.976 136.872 40.9175 137.207 40.8775C137.632 40.8282 137.977 40.7882 138.241 40.7575C138.506 40.7236 138.698 40.6697 138.818 40.5959C138.938 40.522 138.998 40.402 138.998 40.2358V40.2035C138.998 39.8003 138.885 39.4879 138.657 39.2663C138.432 39.0447 138.097 38.9339 137.65 38.9339C137.186 38.9339 136.819 39.037 136.552 39.2433C136.287 39.4464 136.104 39.6726 136.002 39.9219L134.705 39.6264C134.859 39.1955 135.084 38.8478 135.379 38.5831C135.678 38.3153 136.021 38.1214 136.409 38.0014C136.796 37.8783 137.204 37.8168 137.632 37.8168C137.915 37.8168 138.215 37.8506 138.532 37.9183C138.852 37.983 139.151 38.103 139.428 38.2784C139.708 38.4538 139.937 38.7047 140.116 39.0309C140.294 39.354 140.383 39.7741 140.383 40.2912V45H139.035V44.0305H138.98C138.891 44.209 138.757 44.3845 138.578 44.5568C138.4 44.7292 138.171 44.8723 137.89 44.9862C137.61 45.1 137.275 45.157 136.884 45.157ZM137.184 44.049C137.566 44.049 137.892 43.9736 138.163 43.8228C138.437 43.672 138.644 43.475 138.786 43.2319C138.931 42.9857 139.003 42.7225 139.003 42.4425V41.5284C138.954 41.5777 138.858 41.6238 138.717 41.6669C138.578 41.7069 138.42 41.7423 138.241 41.7731C138.063 41.8008 137.889 41.8269 137.72 41.8516C137.55 41.8731 137.409 41.8916 137.295 41.907C137.027 41.9408 136.782 41.9978 136.561 42.0778C136.342 42.1578 136.167 42.2732 136.035 42.424C135.905 42.5717 135.841 42.7687 135.841 43.0149C135.841 43.3565 135.967 43.6151 136.219 43.7905C136.472 43.9628 136.793 44.049 137.184 44.049ZM145.532 37.9091V39.017H141.659V37.9091H145.532ZM142.697 36.2102H144.078V42.918C144.078 43.1857 144.118 43.3873 144.198 43.5227C144.278 43.6551 144.381 43.7459 144.507 43.7951C144.636 43.8413 144.776 43.8643 144.927 43.8643C145.038 43.8643 145.135 43.8567 145.218 43.8413C145.301 43.8259 145.366 43.8136 145.412 43.8043L145.661 44.9446C145.581 44.9754 145.467 45.0062 145.32 45.0369C145.172 45.0708 144.987 45.0893 144.766 45.0923C144.402 45.0985 144.064 45.0339 143.75 44.8984C143.436 44.763 143.182 44.5537 142.988 44.2706C142.794 43.9875 142.697 43.632 142.697 43.2042V36.2102ZM150.039 45.1431C149.34 45.1431 148.738 44.9938 148.234 44.6953C147.732 44.3937 147.344 43.9705 147.07 43.4258C146.799 42.878 146.664 42.2363 146.664 41.5007C146.664 40.7744 146.799 40.1342 147.07 39.5803C147.344 39.0263 147.726 38.5939 148.215 38.283C148.708 37.9722 149.283 37.8168 149.942 37.8168C150.342 37.8168 150.73 37.8829 151.105 38.0153C151.481 38.1476 151.818 38.3554 152.116 38.6385C152.415 38.9216 152.65 39.2894 152.822 39.7418C152.995 40.1912 153.081 40.7375 153.081 41.3807V41.87H147.444V40.8359H151.728C151.728 40.4728 151.654 40.1512 151.507 39.8711C151.359 39.5879 151.151 39.3648 150.884 39.2017C150.619 39.0386 150.308 38.957 149.951 38.957C149.563 38.957 149.225 39.0524 148.935 39.2433C148.649 39.431 148.428 39.6772 148.271 39.9819C148.117 40.2835 148.04 40.6113 148.04 40.9652V41.7731C148.04 42.247 148.123 42.6502 148.289 42.9826C148.458 43.315 148.694 43.5689 148.995 43.7443C149.297 43.9167 149.649 44.0028 150.053 44.0028C150.314 44.0028 150.553 43.9659 150.768 43.892C150.984 43.8151 151.17 43.7012 151.327 43.5504C151.484 43.3996 151.604 43.2134 151.687 42.9918L152.993 43.2273C152.889 43.612 152.701 43.949 152.43 44.2383C152.162 44.5245 151.825 44.7476 151.419 44.9077C151.016 45.0646 150.556 45.1431 150.039 45.1431Z" fill="black"/>
<rect x="1" y="1" width="163" height="58" rx="5" stroke="black" stroke-width="2"/>
</svg>