<?xml version="1.0" encoding="UTF-8"?>
<svg id="Layer_2" data-name="Layer 2" xmlns="http://www.w3.org/2000/svg" viewBox="0 0 284.7 51.26">
  <g id="Layer_1-2" data-name="Layer 1">
    <g>
      <path d="m1.41,16.75c0-1.37.27-2.63.81-3.77s1.29-2.13,2.25-2.95,2.09-1.47,3.39-1.92,2.72-.69,4.25-.69c.89,0,1.74.08,2.55.24s1.56.38,2.25.66,1.33.62,1.91,1.01,1.09.82,1.54,1.29l.11-.02v-3.18h2.79v26.21h-2.79v-.63l-.09-.02c-.38.36-.79.63-1.25.81s-.94.26-1.44.26c-.81,0-1.55-.21-2.23-.63s-1.2-1.02-1.55-1.79h-.07c-.34.75-.82,1.34-1.45,1.78s-1.44.65-2.43.65c-.89,0-1.69-.18-2.41-.54s-1.32-.84-1.83-1.45-.89-1.32-1.17-2.12-.41-1.64-.41-2.52c0-.67.08-1.35.25-2.06s.42-1.41.76-2.11c-.67-.32-1.24-.71-1.71-1.17s-.85-.98-1.15-1.55-.52-1.17-.66-1.82-.21-1.3-.21-1.97Zm9.28,4.03c-.66.48-1.22.99-1.69,1.54s-.85,1.1-1.14,1.68-.51,1.15-.64,1.72-.2,1.13-.2,1.67c0,.59.07,1.13.22,1.64s.35.96.62,1.34.58.68.94.9.77.33,1.21.33c.32,0,.62-.06.91-.18s.55-.3.78-.54.41-.56.55-.94.21-.83.21-1.34v-4.24h2.83v4.27c0,.5.07.94.2,1.31s.32.68.54.92.5.43.8.55.62.18.95.18.64-.06.96-.18.61-.3.86-.56.46-.59.62-.98.24-.88.24-1.44v-10.99c0-1.05-.18-2.04-.55-2.96s-.9-1.72-1.6-2.39-1.55-1.21-2.56-1.6-2.14-.59-3.41-.59c-1.16,0-2.23.16-3.22.48s-1.83.78-2.54,1.38-1.27,1.32-1.67,2.18-.61,1.82-.61,2.88c0,.41.04.82.11,1.22s.19.79.35,1.17.39.72.67,1.05.63.6,1.05.83c.34-.43.72-.85,1.14-1.25s.88-.78,1.39-1.14l1.67,2.07Z" fill="#a991b7" stroke-width="0"/>
      <path d="m35.22,8.64c-2.63,3.53-4.54,8.21-4.54,14.72s1.98,11.01,4.54,14.61h-2.48c-2.27-2.99-4.72-7.6-4.72-14.61.04-7.09,2.45-11.7,4.72-14.72h2.48Z" fill="#a991b7" stroke-width="0"/>
      <path d="m37.94,31.3c2.31-.13,4.44-.49,6.41-1.09s3.66-1.43,5.08-2.5,2.54-2.38,3.34-3.93,1.2-3.32,1.2-5.33c0-1-.1-1.91-.3-2.73s-.47-1.57-.81-2.22-.74-1.22-1.2-1.71-.96-.88-1.49-1.2-1.07-.55-1.63-.71-1.12-.24-1.67-.24c-.67,0-1.3.11-1.9.33s-1.12.54-1.57.96-.81.91-1.06,1.49-.39,1.23-.39,1.94.17,1.43.5,2.15.83,1.39,1.5,2.01l-1.88,1.65c-.52-.41-.96-.87-1.34-1.37s-.69-1.03-.93-1.57-.43-1.09-.55-1.63-.18-1.06-.18-1.54c0-.96.19-1.87.58-2.72s.93-1.59,1.63-2.23,1.53-1.14,2.5-1.51,2.04-.55,3.22-.55c1.23,0,2.43.22,3.61.67s2.23,1.12,3.16,2.04,1.67,2.07,2.24,3.47.85,3.06.85,4.98c0,1.7-.23,3.25-.69,4.65s-1.1,2.66-1.92,3.79-1.8,2.12-2.94,2.97-2.4,1.58-3.76,2.18-2.82,1.07-4.38,1.42-3.14.57-4.77.68l-.46-2.6Z" fill="#a991b7" stroke-width="0"/>
      <path d="m68.53,20.27l17.78-10.98h2.74v24.34h-2.74l-17.78-10.98v-2.38Zm3.78,1.19l7.13,4.39,6.3,3.92V13.18l-13.43,8.28Zm.5-13.21c0-.7.25-1.28.76-1.76.5-.48,1.09-.72,1.76-.72s1.25.24,1.73.72c.48.48.72,1.07.72,1.76s-.24,1.25-.72,1.75c-.48.49-1.06.74-1.73.74s-1.26-.25-1.76-.74c-.5-.49-.76-1.07-.76-1.75Zm12.96-5.76c0-.7.25-1.28.74-1.76C87,.24,87.58,0,88.25,0s1.28.24,1.76.72c.48.48.72,1.07.72,1.76s-.24,1.25-.72,1.75c-.48.49-1.07.74-1.76.74s-1.25-.25-1.75-.74c-.49-.49-.74-1.07-.74-1.75Z" fill="#a991b7" stroke-width="0"/>
      <path d="m108.81,37.98c2.56-3.56,4.54-8.24,4.54-14.72s-1.94-11.05-4.54-14.61h2.45c2.3,2.95,4.72,7.56,4.72,14.65s-2.41,11.63-4.72,14.69h-2.45Z" fill="#a991b7" stroke-width="0"/>
      <path d="m118.31,17.79h36v4.32h-36v-4.32Z" fill="#a991b7" stroke-width="0"/>
      <path d="m168.28,16.17l3.89-12.09h.29l3.89,12.09h12.6l.04.32-10.22,7.2,4.07,12.06-.25.22-10.26-7.56-10.26,7.56-.25-.22,4.07-12.06-10.22-7.2.04-.32h12.6Zm.94,1.3h-6.95l-3.46-.18v.07l3.06,1.94,5.54,3.89-2.09,6.12-1.4,3.74.07.04,3.17-2.52,5.15-3.74,5.15,3.74,3.17,2.52.07-.04-1.4-3.74-2.09-6.12,5.54-3.89,3.06-1.94v-.07l-3.49.18h-6.91l-2.12-6.62-.94-3.38h-.07l-.94,3.38-2.12,6.62Z" fill="#a991b7" stroke-width="0"/>
      <path d="m194.63,10.73c-1.73,0-3.13-1.73-3.13-3.85s1.4-3.85,3.13-3.85,3.13,1.73,3.13,3.85-1.44,3.85-3.13,3.85Zm0-1.08c1.22,0,2.12-1.26,2.12-2.77s-.9-2.74-2.12-2.74-2.12,1.22-2.12,2.74.94,2.77,2.12,2.77Z" fill="#a991b7" stroke-width="0"/>
      <path d="m210.18,31.75c0-1.33.9-2.27,2.16-2.27s2.12.94,2.12,2.27-.83,2.27-2.16,2.27c-1.26,0-2.12-.97-2.12-2.27Z" fill="#a991b7" stroke-width="0"/>
      <path d="m227.61,10.19l-3.42,4.5v.07l5.44-.72v2.45l-5.44-.65v.07l3.46,4.32-2.27,1.3-2.16-5.04h-.07l-2.34,5.08-2.05-1.3,3.42-4.39v-.07l-5.33.68v-2.45l5.29.68v-.07l-3.38-4.39,2.2-1.26,2.23,5h.07l2.2-5.04,2.16,1.22Z" fill="#a991b7" stroke-width="0"/>
      <path d="m242.62,19.95c0,1.62-1.33,2.92-2.95,2.92s-2.92-1.3-2.92-2.92,1.3-2.92,2.92-2.92,2.95,1.37,2.95,2.92Z" fill="#a991b7" stroke-width="0"/>
      <path d="m260.04,31.64c0,2.77-2.27,5.04-5.04,5.04s-5.04-2.27-5.04-5.04,2.27-5.04,5.04-5.04,5.04,2.34,5.04,5.04Zm-1.3,0c0-2.09-1.66-3.74-3.74-3.74s-3.71,1.66-3.71,3.74,1.66,3.71,3.71,3.71c2.16,0,3.74-1.73,3.74-3.71Z" fill="#a991b7" stroke-width="0"/>
      <path d="m271.02,10.73c-1.73,0-3.13-1.73-3.13-3.85s1.4-3.85,3.13-3.85,3.13,1.73,3.13,3.85-1.44,3.85-3.13,3.85Zm0-1.08c1.22,0,2.12-1.26,2.12-2.77s-.9-2.74-2.12-2.74-2.12,1.22-2.12,2.74.94,2.77,2.12,2.77Z" fill="#a991b7" stroke-width="0"/>
    </g>
  </g>
</svg>