<?xml version="1.0" standalone="no"?>
<!DOCTYPE svg PUBLIC "-//W3C//DTD SVG 20010904//EN"
 "http://www.w3.org/TR/2001/REC-SVG-20010904/DTD/svg10.dtd">
<svg version="1.0" xmlns="http://www.w3.org/2000/svg"
 width="240.000000pt" height="240.000000pt" viewBox="0 0 240.000000 240.000000"
 preserveAspectRatio="xMidYMid meet">
<metadata>
Created by potrace 1.10, written by Peter Selinger 2001-2011
</metadata>
<g transform="translate(0.000000,240.000000) scale(0.100000,-0.100000)"
fill="rgb(125, 143, 137)" stroke="none">
<path d="M1064 2175 c-15 -23 -15 -27 0 -50 10 -15 26 -25 41 -25 15 0 31 10
41 25 15 23 15 27 0 50 -10 15 -26 25 -41 25 -15 0 -31 -10 -41 -25z"/>
<path d="M1264 2175 c-15 -23 -15 -27 0 -50 10 -15 26 -25 41 -25 15 0 31 10
41 25 15 23 15 27 0 50 -10 15 -26 25 -41 25 -15 0 -31 -10 -41 -25z"/>
<path d="M882 2154 c-30 -21 -29 -59 3 -80 23 -15 27 -15 50 0 32 21 33 59 3
80 -12 9 -25 16 -28 16 -3 0 -16 -7 -28 -16z"/>
<path d="M1470 2140 c-25 -25 -25 -45 -1 -69 20 -20 53 -19 69 3 20 26 21 47
2 66 -25 25 -45 25 -70 0z"/>
<path d="M702 2074 c-30 -21 -29 -59 3 -80 23 -15 27 -15 50 0 32 21 33 59 3
80 -12 9 -25 16 -28 16 -3 0 -16 -7 -28 -16z"/>
<path d="M1650 2060 c-11 -11 -20 -27 -20 -35 0 -8 9 -24 20 -35 11 -11 27
-20 35 -20 8 0 24 9 35 20 11 11 20 27 20 35 0 8 -9 24 -20 35 -11 11 -27 20
-35 20 -8 0 -24 -9 -35 -20z"/>
<path d="M1177 2000 c-14 -11 -24 -27 -23 -37 3 -17 41 -53 57 -53 15 0 49 39
49 55 0 16 -34 55 -49 55 -4 0 -20 -9 -34 -20z"/>
<path d="M976 1974 c-31 -30 -9 -84 34 -84 24 0 50 26 50 50 0 24 -26 50 -50
50 -10 0 -26 -7 -34 -16z"/>
<path d="M1364 1965 c-15 -23 -15 -27 0 -50 21 -32 59 -33 80 -3 20 29 20 34
-4 58 -27 27 -56 25 -76 -5z"/>
<path d="M530 1950 c-27 -27 -11 -72 31 -83 23 -6 59 24 59 48 0 19 -36 55
-55 55 -8 0 -24 -9 -35 -20z"/>
<path d="M1810 1940 c-11 -11 -20 -24 -20 -29 0 -16 36 -54 53 -57 16 -2 57
39 57 57 0 15 -39 49 -55 49 -8 0 -24 -9 -35 -20z"/>
<path d="M790 1900 c-25 -25 -25 -45 -1 -69 20 -20 53 -19 69 3 20 26 21 47 2
66 -25 25 -45 25 -70 0z"/>
<path d="M1550 1890 c-24 -24 -24 -29 -4 -58 21 -30 59 -29 80 3 15 23 15 27
0 50 -20 30 -49 32 -76 5z"/>
<path d="M396 1804 c-31 -30 -9 -84 34 -84 24 0 50 26 50 50 0 24 -26 50 -50
50 -10 0 -26 -7 -34 -16z"/>
<path d="M1070 1800 c-11 -11 -20 -27 -20 -35 0 -8 9 -24 20 -35 11 -11 27
-20 35 -20 8 0 24 9 35 20 11 11 20 27 20 35 0 8 -9 24 -20 35 -11 11 -27 20
-35 20 -8 0 -24 -9 -35 -20z"/>
<path d="M1269 1799 c-24 -24 -24 -44 1 -69 25 -25 45 -25 70 0 19 19 18 40
-2 66 -16 22 -49 23 -69 3z"/>
<path d="M1940 1790 c-19 -19 -18 -40 2 -66 16 -22 49 -23 69 -3 24 24 24 44
-1 69 -25 25 -45 25 -70 0z"/>
<path d="M630 1780 c-11 -11 -20 -27 -20 -35 0 -8 9 -24 20 -35 11 -11 27 -20
35 -20 8 0 24 9 35 20 11 11 20 27 20 35 0 8 -9 24 -20 35 -11 11 -27 20 -35
20 -8 0 -24 -9 -35 -20z"/>
<path d="M1710 1770 c-25 -25 -25 -45 -1 -69 20 -20 53 -19 69 3 20 26 21 47
2 66 -25 25 -45 25 -70 0z"/>
<path d="M880 1730 c-24 -24 -24 -29 -4 -58 21 -30 59 -29 80 3 15 23 15 27 0
50 -20 30 -49 32 -76 5z"/>
<path d="M1462 1734 c-30 -21 -29 -59 3 -80 23 -15 27 -15 50 0 32 21 33 59 3
80 -12 9 -25 16 -28 16 -3 0 -16 -7 -28 -16z"/>
<path d="M300 1632 c-18 -15 -22 -25 -16 -46 13 -52 79 -52 92 1 5 20 2 31
-16 45 -12 10 -26 18 -30 18 -4 0 -18 -8 -30 -18z"/>
<path d="M506 1624 c-31 -30 -9 -84 34 -84 24 0 50 26 50 50 0 24 -26 50 -50
50 -10 0 -26 -7 -34 -16z"/>
<path d="M2040 1613 c-11 -14 -20 -30 -20 -34 0 -15 39 -49 55 -49 16 0 55 34
55 49 0 16 -36 54 -53 57 -10 1 -26 -9 -37 -23z"/>
<path d="M729 1609 c-24 -24 -24 -44 1 -69 25 -25 45 -25 70 0 19 19 18 40 -2
66 -16 22 -49 23 -69 3z"/>
<path d="M1164 1605 c-15 -23 -15 -27 0 -50 10 -15 26 -25 41 -25 15 0 31 10
41 25 15 23 15 27 0 50 -10 15 -26 25 -41 25 -15 0 -31 -10 -41 -25z"/>
<path d="M1824 1605 c-15 -23 -15 -27 0 -50 10 -15 26 -25 41 -25 15 0 31 10
41 25 15 23 15 27 0 50 -10 15 -26 25 -41 25 -15 0 -31 -10 -41 -25z"/>
<path d="M1610 1602 c-27 -22 -22 -65 10 -82 48 -26 93 47 50 82 -12 10 -26
18 -30 18 -4 0 -18 -8 -30 -18z"/>
<path d="M980 1570 c-27 -27 -25 -56 5 -76 23 -15 27 -15 50 0 32 21 33 59 3
80 -29 20 -34 20 -58 -4z"/>
<path d="M1354 1555 c-15 -23 -15 -27 0 -50 21 -32 59 -33 80 -3 20 29 20 34
-4 58 -27 27 -56 25 -76 -5z"/>
<path d="M230 1440 c-24 -24 -24 -29 -4 -58 21 -30 59 -29 80 3 15 23 15 27 0
50 -20 30 -49 32 -76 5z"/>
<path d="M430 1440 c-11 -11 -20 -27 -20 -35 0 -16 34 -55 49 -55 16 0 54 36
57 53 2 16 -39 57 -57 57 -5 0 -18 -9 -29 -20z"/>
<path d="M624 1425 c-15 -23 -15 -27 0 -50 10 -15 26 -25 41 -25 15 0 31 10
41 25 15 23 15 27 0 50 -10 15 -26 25 -41 25 -15 0 -31 -10 -41 -25z"/>
<path d="M842 1434 c-30 -21 -29 -59 3 -80 23 -15 27 -15 50 0 32 21 33 59 3
80 -12 9 -25 16 -28 16 -3 0 -16 -7 -28 -16z"/>
<path d="M1712 1434 c-30 -21 -29 -59 3 -80 23 -15 27 -15 50 0 32 21 33 59 3
80 -12 9 -25 16 -28 16 -3 0 -16 -7 -28 -16z"/>
<path d="M1912 1434 c-30 -21 -29 -59 3 -80 23 -15 27 -15 50 0 32 21 33 59 3
80 -12 9 -25 16 -28 16 -3 0 -16 -7 -28 -16z"/>
<path d="M2100 1423 c-11 -14 -20 -30 -20 -34 0 -15 39 -49 55 -49 16 0 55 34
55 49 0 16 -36 54 -53 57 -10 1 -26 -9 -37 -23z"/>
<path d="M1494 1415 c-15 -23 -15 -27 0 -50 10 -15 26 -25 41 -25 15 0 31 10
41 25 15 23 15 27 0 50 -10 15 -26 25 -41 25 -15 0 -31 -10 -41 -25z"/>
<path d="M1070 1400 c-11 -11 -20 -27 -20 -35 0 -8 9 -24 20 -35 11 -11 27
-20 35 -20 8 0 24 9 35 20 11 11 20 27 20 35 0 8 -9 24 -20 35 -11 11 -27 20
-35 20 -8 0 -24 -9 -35 -20z"/>
<path d="M1260 1400 c-11 -11 -20 -27 -20 -35 0 -8 9 -24 20 -35 11 -11 27
-20 35 -20 8 0 24 9 35 20 11 11 20 27 20 35 0 8 -9 24 -20 35 -11 11 -27 20
-35 20 -8 0 -24 -9 -35 -20z"/>
<path d="M203 1234 c-15 -24 -15 -29 -2 -53 11 -19 23 -26 44 -26 21 0 33 7
44 26 13 24 13 29 -2 53 -11 16 -27 26 -42 26 -15 0 -31 -10 -42 -26z"/>
<path d="M393 1234 c-15 -24 -15 -29 -2 -53 11 -19 23 -26 44 -26 21 0 33 7
44 26 13 24 13 29 -2 53 -11 16 -27 26 -42 26 -15 0 -31 -10 -42 -26z"/>
<path d="M590 1240 c-11 -11 -20 -27 -20 -35 0 -21 36 -55 58 -55 23 0 52 30
52 53 0 21 -35 57 -55 57 -8 0 -24 -9 -35 -20z"/>
<path d="M785 1235 c-14 -13 -25 -29 -25 -35 0 -17 39 -50 60 -50 21 0 60 33
60 50 0 14 -46 60 -60 60 -6 0 -22 -11 -35 -25z"/>
<path d="M975 1235 c-14 -13 -25 -29 -25 -35 0 -6 11 -22 25 -35 13 -14 29
-25 35 -25 6 0 22 11 35 25 14 13 25 29 25 35 0 6 -11 22 -25 35 -13 14 -29
25 -35 25 -6 0 -22 -11 -35 -25z"/>
<path d="M1166 1234 c-9 -8 -16 -24 -16 -34 0 -10 7 -26 16 -34 8 -9 24 -16
34 -16 10 0 26 7 34 16 9 8 16 24 16 34 0 10 -7 26 -16 34 -8 9 -24 16 -34 16
-10 0 -26 -7 -34 -16z"/>
<path d="M1356 1234 c-31 -30 -9 -84 34 -84 24 0 50 26 50 50 0 24 -26 50 -50
50 -10 0 -26 -7 -34 -16z"/>
<path d="M1552 1234 c-30 -20 -29 -59 2 -79 51 -34 103 39 56 77 -27 22 -30
22 -58 2z"/>
<path d="M1740 1230 c-25 -25 -25 -45 -1 -69 20 -20 53 -19 69 3 20 26 21 47
2 66 -25 25 -45 25 -70 0z"/>
<path d="M1930 1230 c-11 -11 -20 -27 -20 -35 0 -16 34 -55 49 -55 16 0 54 36
57 53 2 16 -39 57 -57 57 -5 0 -18 -9 -29 -20z"/>
<path d="M2120 1230 c-11 -11 -20 -27 -20 -35 0 -8 9 -24 20 -35 11 -11 27
-20 35 -20 8 0 24 9 35 20 11 11 20 27 20 35 0 8 -9 24 -20 35 -11 11 -27 20
-35 20 -8 0 -24 -9 -35 -20z"/>
<path d="M1070 1070 c-11 -11 -20 -27 -20 -35 0 -8 9 -24 20 -35 11 -11 27
-20 35 -20 8 0 24 9 35 20 11 11 20 27 20 35 0 8 -9 24 -20 35 -11 11 -27 20
-35 20 -8 0 -24 -9 -35 -20z"/>
<path d="M1260 1070 c-11 -11 -20 -27 -20 -35 0 -8 9 -24 20 -35 11 -11 27
-20 35 -20 8 0 24 9 35 20 11 11 20 27 20 35 0 8 -9 24 -20 35 -11 11 -27 20
-35 20 -8 0 -24 -9 -35 -20z"/>
<path d="M430 1040 c-27 -27 -25 -56 5 -76 23 -15 27 -15 50 0 32 21 33 59 3
80 -29 20 -34 20 -58 -4z"/>
<path d="M630 1040 c-27 -27 -25 -56 5 -76 23 -15 27 -15 50 0 14 9 25 25 25
36 0 21 -33 60 -50 60 -5 0 -19 -9 -30 -20z"/>
<path d="M836 1044 c-9 -8 -16 -24 -16 -34 0 -10 7 -26 16 -34 8 -9 24 -16 34
-16 10 0 26 7 34 16 9 8 16 24 16 34 0 10 -7 26 -16 34 -8 9 -24 16 -34 16
-10 0 -26 -7 -34 -16z"/>
<path d="M1500 1042 c-47 -38 5 -111 56 -77 31 20 32 59 2 79 -28 20 -31 20
-58 -2z"/>
<path d="M224 1025 c-15 -23 -15 -27 0 -50 10 -15 26 -25 41 -25 15 0 31 10
41 25 15 23 15 27 0 50 -10 15 -26 25 -41 25 -15 0 -31 -10 -41 -25z"/>
<path d="M1706 1034 c-31 -30 -9 -84 34 -84 24 0 50 26 50 50 0 24 -26 50 -50
50 -10 0 -26 -7 -34 -16z"/>
<path d="M1906 1034 c-31 -30 -9 -84 34 -84 24 0 50 26 50 50 0 24 -26 50 -50
50 -10 0 -26 -7 -34 -16z"/>
<path d="M2100 1030 c-25 -25 -25 -45 -1 -69 20 -20 53 -19 69 3 20 26 21 47
2 66 -25 25 -45 25 -70 0z"/>
<path d="M976 904 c-9 -8 -16 -24 -16 -34 0 -10 7 -26 16 -34 8 -9 24 -16 34
-16 10 0 26 7 34 16 9 8 16 24 16 34 0 10 -7 26 -16 34 -8 9 -24 16 -34 16
-10 0 -26 -7 -34 -16z"/>
<path d="M1360 902 c-47 -38 5 -111 56 -77 31 20 32 59 2 79 -28 20 -31 20
-58 -2z"/>
<path d="M726 864 c-9 -8 -16 -24 -16 -34 0 -10 7 -26 16 -34 8 -9 24 -16 34
-16 10 0 26 7 34 16 9 8 16 24 16 34 0 10 -7 26 -16 34 -8 9 -24 16 -34 16
-10 0 -26 -7 -34 -16z"/>
<path d="M1606 864 c-31 -30 -9 -84 34 -84 24 0 50 26 50 50 0 24 -26 50 -50
50 -10 0 -26 -7 -34 -16z"/>
<path d="M500 850 c-27 -27 -11 -72 31 -83 23 -6 59 24 59 48 0 19 -36 55 -55
55 -8 0 -24 -9 -35 -20z"/>
<path d="M1166 854 c-9 -8 -16 -24 -16 -34 0 -10 7 -26 16 -34 8 -9 24 -16 34
-16 10 0 26 7 34 16 9 8 16 24 16 34 0 10 -7 26 -16 34 -8 9 -24 16 -34 16
-10 0 -26 -7 -34 -16z"/>
<path d="M1832 854 c-30 -21 -29 -59 3 -80 23 -15 27 -15 50 0 32 21 33 59 3
80 -12 9 -25 16 -28 16 -3 0 -16 -7 -28 -16z"/>
<path d="M284 835 c-15 -23 -15 -27 0 -50 10 -15 26 -25 41 -25 15 0 31 10 41
25 15 23 15 27 0 50 -10 15 -26 25 -41 25 -15 0 -31 -10 -41 -25z"/>
<path d="M2040 842 c-47 -38 5 -111 56 -77 31 20 32 59 2 79 -28 20 -31 20
-58 -2z"/>
<path d="M879 739 c-24 -24 -24 -44 1 -69 25 -25 45 -25 70 0 19 19 18 40 -2
66 -16 22 -49 23 -69 3z"/>
<path d="M1444 725 c-15 -23 -15 -27 0 -50 10 -15 26 -25 41 -25 15 0 31 10
41 25 15 23 15 27 0 50 -10 15 -26 25 -41 25 -15 0 -31 -10 -41 -25z"/>
<path d="M626 694 c-9 -8 -16 -24 -16 -34 0 -43 54 -65 84 -34 9 8 16 24 16
34 0 10 -7 26 -16 34 -8 9 -24 16 -34 16 -10 0 -26 -7 -34 -16z"/>
<path d="M1709 691 c-20 -16 -22 -23 -14 -46 13 -36 46 -48 74 -29 27 20 27
59 -1 78 -28 20 -31 20 -59 -3z"/>
<path d="M390 670 c-11 -11 -20 -24 -20 -30 0 -17 39 -50 60 -50 11 0 27 11
36 25 15 23 15 27 0 50 -20 30 -49 32 -76 5z"/>
<path d="M1072 674 c-30 -21 -29 -59 3 -80 23 -15 27 -15 50 0 32 21 33 59 3
80 -12 9 -25 16 -28 16 -3 0 -16 -7 -28 -16z"/>
<path d="M1267 670 c-14 -11 -24 -27 -23 -37 3 -17 41 -53 57 -53 15 0 49 39
49 55 0 16 -34 55 -49 55 -4 0 -20 -9 -34 -20z"/>
<path d="M1942 674 c-30 -21 -29 -59 3 -80 23 -15 27 -15 50 0 32 21 33 59 3
80 -12 9 -25 16 -28 16 -3 0 -16 -7 -28 -16z"/>
<path d="M780 570 c-27 -27 -11 -72 31 -83 23 -6 59 24 59 48 0 19 -36 55 -55
55 -8 0 -24 -9 -35 -20z"/>
<path d="M1552 574 c-30 -21 -29 -59 3 -80 23 -15 27 -15 50 0 32 21 33 59 3
80 -12 9 -25 16 -28 16 -3 0 -16 -7 -28 -16z"/>
<path d="M526 524 c-9 -8 -16 -24 -16 -34 0 -43 54 -65 84 -34 31 30 9 84 -34
84 -10 0 -26 -7 -34 -16z"/>
<path d="M1800 520 c-27 -27 -11 -72 31 -83 23 -6 59 24 59 48 0 19 -36 55
-55 55 -8 0 -24 -9 -35 -20z"/>
<path d="M966 494 c-31 -30 -9 -84 34 -84 24 0 50 26 50 50 0 43 -54 65 -84
34z"/>
<path d="M1354 485 c-15 -23 -15 -27 0 -50 10 -15 26 -25 41 -25 15 0 31 10
41 25 15 23 15 27 0 50 -10 15 -26 25 -41 25 -15 0 -31 -10 -41 -25z"/>
<path d="M1160 470 c-27 -27 -11 -72 31 -83 23 -6 59 24 59 48 0 19 -36 55
-55 55 -8 0 -24 -9 -35 -20z"/>
<path d="M690 410 c-27 -27 -25 -56 5 -76 23 -15 27 -15 50 0 14 9 25 25 25
36 0 21 -33 60 -50 60 -5 0 -19 -9 -30 -20z"/>
<path d="M1634 395 c-15 -23 -15 -27 0 -50 10 -15 26 -25 41 -25 15 0 31 10
41 25 15 23 15 27 0 50 -10 15 -26 25 -41 25 -15 0 -31 -10 -41 -25z"/>
<path d="M864 315 c-15 -23 -15 -27 0 -50 22 -33 60 -33 82 0 15 23 15 27 0
50 -10 15 -26 25 -41 25 -15 0 -31 -10 -41 -25z"/>
<path d="M1454 315 c-15 -23 -15 -27 0 -50 21 -32 59 -33 80 -3 20 29 20 34
-4 58 -27 27 -56 25 -76 -5z"/>
<path d="M1054 275 c-15 -23 -15 -27 0 -50 22 -33 60 -33 82 0 15 23 15 27 0
50 -10 15 -26 25 -41 25 -15 0 -31 -10 -41 -25z"/>
<path d="M1254 275 c-15 -23 -15 -27 0 -50 22 -33 60 -33 82 0 15 23 15 27 0
50 -10 15 -26 25 -41 25 -15 0 -31 -10 -41 -25z"/>
</g>
</svg>
