<?xml version="1.0" encoding="utf-8"?>
<!DOCTYPE svg PUBLIC "-//W3C//DTD SVG 1.1//EN" "http://www.w3.org/Graphics/SVG/1.1/DTD/svg11.dtd">
<svg xmlns:xlink="http://www.w3.org/1999/xlink" viewBox="0 0 379 70" class="barcode-canvas" version="1.1" xmlns="http://www.w3.org/2000/svg">
    <rect x="0" y="0" width="379" height="70" fill="transparent" />
    <rect x="9" y="7" width="2" height="57" fill="rgba(133, 119, 153, 1)" />
    <rect x="15" y="7" width="2" height="57" fill="rgba(133, 119, 153, 1)" />
    <rect x="21" y="7" width="8" height="57" fill="rgba(133, 119, 153, 1)" />
    <rect x="39" y="7" width="2" height="57" fill="rgba(133, 119, 153, 1)" />
    <rect x="43" y="7" width="2" height="57" fill="rgba(133, 119, 153, 1)" />
    <rect x="47" y="7" width="16" height="57" fill="rgba(133, 119, 153, 1)" />
    <rect x="71" y="7" width="2" height="57" fill="rgba(133, 119, 153, 1)" />
    <rect x="75" y="7" width="2" height="57" fill="rgba(133, 119, 153, 1)" />
    <rect x="79" y="7" width="4" height="57" fill="rgba(133, 119, 153, 1)" />
    <rect x="93" y="7" width="2" height="57" fill="rgba(133, 119, 153, 1)" />
    <rect x="101" y="7" width="2" height="57" fill="rgba(133, 119, 153, 1)" />
    <rect x="109" y="7" width="4" height="57" fill="rgba(133, 119, 153, 1)" />
    <rect x="115" y="7" width="2" height="57" fill="rgba(133, 119, 153, 1)" />
    <rect x="125" y="7" width="10" height="57" fill="rgba(133, 119, 153, 1)" />
    <rect x="137" y="7" width="4" height="57" fill="rgba(133, 119, 153, 1)" />
    <rect x="143" y="7" width="2" height="57" fill="rgba(133, 119, 153, 1)" />
    <rect x="147" y="7" width="12" height="57" fill="rgba(133, 119, 153, 1)" />
    <rect x="167" y="7" width="6" height="57" fill="rgba(133, 119, 153, 1)" />
    <rect x="179" y="7" width="2" height="57" fill="rgba(133, 119, 153, 1)" />
    <rect x="183" y="7" width="2" height="57" fill="rgba(133, 119, 153, 1)" />
    <rect x="189" y="7" width="6" height="57" fill="rgba(133, 119, 153, 1)" />
    <rect x="201" y="7" width="6" height="57" fill="rgba(133, 119, 153, 1)" />
    <rect x="211" y="7" width="2" height="57" fill="rgba(133, 119, 153, 1)" />
    <rect x="221" y="7" width="10" height="57" fill="rgba(133, 119, 153, 1)" />
    <rect x="233" y="7" width="4" height="57" fill="rgba(133, 119, 153, 1)" />
    <rect x="239" y="7" width="2" height="57" fill="rgba(133, 119, 153, 1)" />
    <rect x="247" y="7" width="12" height="57" fill="rgba(133, 119, 153, 1)" />
    <rect x="267" y="7" width="2" height="57" fill="rgba(133, 119, 153, 1)" />
    <rect x="271" y="7" width="6" height="57" fill="rgba(133, 119, 153, 1)" />
    <rect x="281" y="7" width="2" height="57" fill="rgba(133, 119, 153, 1)" />
    <rect x="287" y="7" width="8" height="57" fill="rgba(133, 119, 153, 1)" />
    <rect x="297" y="7" width="2" height="57" fill="rgba(133, 119, 153, 1)" />
    <rect x="305" y="7" width="2" height="57" fill="rgba(133, 119, 153, 1)" />
    <rect x="311" y="7" width="4" height="57" fill="rgba(133, 119, 153, 1)" />
    <rect x="319" y="7" width="2" height="57" fill="rgba(133, 119, 153, 1)" />
    <rect x="329" y="7" width="8" height="57" fill="rgba(133, 119, 153, 1)" />
    <rect x="339" y="7" width="2" height="57" fill="rgba(133, 119, 153, 1)" />
    <rect x="343" y="7" width="16" height="57" fill="rgba(133, 119, 153, 1)" />
    <rect x="363" y="7" width="6" height="57" fill="rgba(133, 119, 153, 1)" />
    <rect x="371" y="7" width="2" height="57" fill="rgba(133, 119, 153, 1)" />
</svg>