<!DOCTYPE svg PUBLIC "-//W3C//DTD SVG 1.1//EN" "http://www.w3.org/Graphics/SVG/1.1/DTD/svg11.dtd">
<!-- Uploaded to: SVG Repo, www.svgrepo.com, Transformed by: SVG Repo Mixer Tools -->
<svg fill="lavender" height="800px" width="800px" version="1.1" id="Layer_1" xmlns="http://www.w3.org/2000/svg" xmlns:xlink="http://www.w3.org/1999/xlink" viewBox="-250 -250 1000.01 1000.01" xml:space="preserve" stroke="#664e76" stroke-width="0.0050000900000000004" transform="rotate(0)">

<g id="SVGRepo_bgCarrier" stroke-width="0"/>

<g id="SVGRepo_tracerCarrier" stroke-linecap="round" stroke-linejoin="round"/>

<g id="SVGRepo_iconCarrier"> <g> <g> <path d="M469.584,69.084c-1.564-1.564-4.092-1.564-5.656,0L75.852,457.164l-63.34,30.332l30.332-63.332l388.08-388.08 c1.564-1.564,1.564-4.092,0-5.656c-1.564-1.564-4.092-1.564-5.656,0L36.704,418.992c-0.32,0.32-0.58,0.692-0.78,1.1L0.392,494.28 c-0.732,1.532-0.42,3.356,0.78,4.556c0.764,0.768,1.788,1.172,2.828,1.172c0.584,0,1.176-0.128,1.728-0.392l74.196-35.532 c0.408-0.196,0.78-0.46,1.1-0.78L469.584,74.74C471.148,73.176,471.148,70.648,469.584,69.084z"/> </g> </g> <g> <g> <path d="M82.308,459.153l-8.34-30.32c-0.372-1.36-1.432-2.42-2.792-2.796l-30.324-8.34c-2.128-0.588-4.332,0.664-4.916,2.796 c-0.588,2.128,0.664,4.332,2.792,4.916l28.132,7.74l7.74,28.128c0.488,1.772,2.1,2.94,3.852,2.94c0.352,0,0.712-0.048,1.064-0.148 C81.644,463.484,82.892,461.281,82.308,459.153z"/> </g> </g> <g> <g> <path d="M494.276,22.304L477.704,5.737c-7.648-7.648-20.096-7.648-27.752,0L423.88,31.808c-1.564,1.564-1.564,4.092,0,5.656 c1.564,1.564,4.092,1.564,5.656,0l26.072-26.072c4.528-4.528,11.908-4.528,16.44,0L488.62,27.96 c4.528,4.532,4.528,11.904,0,16.436l-26.084,26.076c-1.564,1.56-1.564,4.092,0,5.656c0.78,0.78,1.804,1.172,2.828,1.172 c1.024,0,2.048-0.388,2.828-1.168l26.084-26.08C501.92,42.401,501.92,29.956,494.276,22.304z"/> </g> </g> <g> <g> <path d="M469.58,69.084l-38.66-38.66c-1.564-1.564-4.092-1.564-5.656,0c-1.564,1.564-1.564,4.092,0,5.656l38.66,38.66 c0.78,0.78,1.804,1.172,2.828,1.172c1.024,0,2.048-0.392,2.828-1.172C471.144,73.177,471.144,70.648,469.58,69.084z"/> </g> </g> <g> <g> <path d="M458.528,80.136l-38.66-38.66c-1.564-1.564-4.092-1.564-5.656,0c-1.564,1.564-1.564,4.092,0,5.656l38.66,38.66 c0.78,0.78,1.804,1.172,2.828,1.172c1.024,0,2.048-0.388,2.828-1.172C460.092,84.229,460.092,81.7,458.528,80.136z"/> </g> </g> <g> <g> <path d="M439.2,60.804c-1.564-1.564-4.092-1.564-5.656,0L114.232,380.12c-1.564,1.564-1.564,4.092,0,5.656 c0.78,0.78,1.804,1.172,2.828,1.172s2.044-0.388,2.828-1.172L439.2,66.46C440.764,64.896,440.764,62.368,439.2,60.804z"/> </g> </g> <g> <g> <path d="M92.156,407.852c-1.564-1.564-4.092-1.564-5.656,0l-19.212,19.212c-1.564,1.564-1.564,4.092,0,5.656 c0.78,0.78,1.804,1.172,2.828,1.172c1.024,0,2.048-0.388,2.828-1.172l19.212-19.212C93.72,411.944,93.72,409.416,92.156,407.852z"/> </g> </g> <g> <g> <path d="M50.836,471.244l-22.072-22.072c-1.564-1.564-4.092-1.564-5.656,0c-1.564,1.564-1.564,4.092,0,5.656L45.18,476.9 c0.78,0.78,1.804,1.172,2.828,1.172s2.048-0.392,2.828-1.172C52.4,475.336,52.4,472.808,50.836,471.244z"/> </g> </g> </g>

</svg>